<svg width="271" height="241" viewBox="0 0 271 241" fill="none" xmlns="http://www.w3.org/2000/svg">
<path d="M0 195H271" stroke="white" stroke-width="5"/>
<path d="M41 191V187.5M41 187.5V82L79.5 40V194.5H41V187.5Z" stroke="white" stroke-width="2"/>
<path d="M95 54.4065L80 40V194H95V54.4065Z" fill="url(#paint0_linear)" stroke="white" stroke-width="2"/>
<path d="M96.5 3.5V194.5H159.5V55L96.5 3.5Z" stroke="white" stroke-width="3"/>
<path d="M139 193V38.5L160 55.5V193H139Z" fill="url(#paint1_linear)" stroke="white" stroke-width="2"/>
<path d="M184 52L160 78V193H215V83.5L184 52Z" stroke="white" stroke-width="3"/>
<path d="M185 193V53.5L215 83.5V193H185Z" fill="url(#paint2_linear)" stroke="white"/>
<path d="M20.365 226.335H27.469C28.6037 226.335 29.467 226.027 30.059 225.41C30.6757 224.769 30.984 223.856 30.984 222.672V209.537C30.984 208.353 30.6757 207.453 30.059 206.836C29.467 206.195 28.6037 205.874 27.469 205.874H20.365C20.1183 205.874 19.995 205.985 19.995 206.207V226.002C19.995 226.224 20.1183 226.335 20.365 226.335ZM18.145 227.556V204.653C18.145 204.357 18.2683 204.209 18.515 204.209H27.654C29.2573 204.209 30.5153 204.678 31.428 205.615C32.3653 206.552 32.834 207.835 32.834 209.463V222.746C32.834 224.374 32.3653 225.657 31.428 226.594C30.5153 227.531 29.2573 228 27.654 228H18.515C18.2683 228 18.145 227.852 18.145 227.556ZM38.1117 228H36.9647C36.6934 228 36.607 227.852 36.7057 227.556L44.0687 204.653C44.1427 204.357 44.3154 204.209 44.5867 204.209H46.3257C46.5724 204.209 46.745 204.357 46.8437 204.653L54.2067 227.556C54.2807 227.852 54.1944 228 53.9477 228H52.7637C52.517 228 52.3567 227.852 52.2827 227.556L50.2847 221.636H40.5907L38.5927 227.556C38.494 227.852 38.3337 228 38.1117 228ZM45.3637 206.244L41.1087 219.971H49.8037L45.5117 206.244H45.3637ZM65.4252 228H63.7232C63.4766 228 63.3162 227.852 63.2422 227.556L56.3602 204.653C56.2616 204.357 56.3726 204.209 56.6932 204.209H57.8402C58.0869 204.209 58.2472 204.357 58.3212 204.653L64.5002 225.706H64.6482L70.8272 204.653C70.9012 204.357 71.0616 204.209 71.3082 204.209H72.4552C72.7512 204.209 72.8622 204.357 72.7882 204.653L65.9062 227.556C65.8322 227.852 65.6719 228 65.4252 228ZM79.0042 204.653V227.556C79.0042 227.852 78.8686 228 78.5972 228H77.5242C77.2776 228 77.1542 227.852 77.1542 227.556V204.653C77.1542 204.357 77.2776 204.209 77.5242 204.209H78.5972C78.8686 204.209 79.0042 204.357 79.0042 204.653ZM85.3486 222.746V221.414C85.3486 221.143 85.4842 221.007 85.7556 221.007H86.8286C87.0999 221.007 87.2356 221.143 87.2356 221.414V222.635C87.2356 225.102 88.4319 226.335 90.8246 226.335H94.6726C97.0652 226.335 98.2616 225.089 98.2616 222.598V221.044C98.2616 219.959 97.8176 219.108 96.9296 218.491C96.0416 217.874 94.9686 217.43 93.7106 217.159C92.4526 216.888 91.1822 216.604 89.8996 216.308C88.6416 216.012 87.5686 215.469 86.6806 214.68C85.7926 213.891 85.3486 212.83 85.3486 211.498V209.463C85.3486 207.835 85.8172 206.552 86.7546 205.615C87.6919 204.678 88.9622 204.209 90.5656 204.209H94.8576C96.4609 204.209 97.7312 204.678 98.6686 205.615C99.6059 206.552 100.075 207.835 100.075 209.463V210.499C100.075 210.77 99.9389 210.906 99.6676 210.906H98.5946C98.3232 210.906 98.1876 210.77 98.1876 210.499V209.574C98.1876 207.107 96.9912 205.874 94.5986 205.874H90.7876C88.4196 205.874 87.2356 207.132 87.2356 209.648V211.498C87.2356 213.2 88.7526 214.347 91.7866 214.939C93.0446 215.186 94.3026 215.469 95.5606 215.79C96.8432 216.111 97.9286 216.69 98.8166 217.529C99.7046 218.368 100.149 219.502 100.149 220.933V222.746C100.149 224.374 99.6799 225.657 98.7426 226.594C97.8052 227.531 96.5349 228 94.9316 228H90.5656C88.9622 228 87.6919 227.531 86.7546 226.594C85.8172 225.657 85.3486 224.374 85.3486 222.746ZM127.94 228H116.507C116.261 228 116.137 227.852 116.137 227.556V204.653C116.137 204.357 116.261 204.209 116.507 204.209H127.94C128.236 204.209 128.384 204.345 128.384 204.616V205.467C128.384 205.738 128.236 205.874 127.94 205.874H118.357C118.111 205.874 117.987 205.985 117.987 206.207V214.717C117.987 214.939 118.111 215.05 118.357 215.05H126.904C127.176 215.05 127.311 215.186 127.311 215.457V216.308C127.311 216.579 127.176 216.715 126.904 216.715H118.357C118.111 216.715 117.987 216.826 117.987 217.048V226.002C117.987 226.224 118.111 226.335 118.357 226.335H127.94C128.236 226.335 128.384 226.471 128.384 226.742V227.593C128.384 227.864 128.236 228 127.94 228ZM133.803 222.746V221.414C133.803 221.143 133.938 221.007 134.21 221.007H135.283C135.554 221.007 135.69 221.143 135.69 221.414V222.635C135.69 225.102 136.886 226.335 139.279 226.335H143.127C145.519 226.335 146.716 225.089 146.716 222.598V221.044C146.716 219.959 146.272 219.108 145.384 218.491C144.496 217.874 143.423 217.43 142.165 217.159C140.907 216.888 139.636 216.604 138.354 216.308C137.096 216.012 136.023 215.469 135.135 214.68C134.247 213.891 133.803 212.83 133.803 211.498V209.463C133.803 207.835 134.271 206.552 135.209 205.615C136.146 204.678 137.416 204.209 139.02 204.209H143.312C144.915 204.209 146.185 204.678 147.123 205.615C148.06 206.552 148.529 207.835 148.529 209.463V210.499C148.529 210.77 148.393 210.906 148.122 210.906H147.049C146.777 210.906 146.642 210.77 146.642 210.499V209.574C146.642 207.107 145.445 205.874 143.053 205.874H139.242C136.874 205.874 135.69 207.132 135.69 209.648V211.498C135.69 213.2 137.207 214.347 140.241 214.939C141.499 215.186 142.757 215.469 144.015 215.79C145.297 216.111 146.383 216.69 147.271 217.529C148.159 218.368 148.603 219.502 148.603 220.933V222.746C148.603 224.374 148.134 225.657 147.197 226.594C146.259 227.531 144.989 228 143.386 228H139.02C137.416 228 136.146 227.531 135.209 226.594C134.271 225.657 133.803 224.374 133.803 222.746ZM159.907 228H158.834C158.563 228 158.427 227.852 158.427 227.556V206.207C158.427 205.985 158.304 205.874 158.057 205.874H152.692C152.396 205.874 152.248 205.738 152.248 205.467V204.616C152.248 204.345 152.396 204.209 152.692 204.209H166.012C166.308 204.209 166.456 204.345 166.456 204.616V205.467C166.456 205.738 166.308 205.874 166.012 205.874H160.647C160.4 205.874 160.277 205.985 160.277 206.207V227.556C160.277 227.852 160.154 228 159.907 228ZM169.635 228H168.488C168.217 228 168.13 227.852 168.229 227.556L175.592 204.653C175.666 204.357 175.839 204.209 176.11 204.209H177.849C178.096 204.209 178.268 204.357 178.367 204.653L185.73 227.556C185.804 227.852 185.718 228 185.471 228H184.287C184.04 228 183.88 227.852 183.806 227.556L181.808 221.636H172.114L170.116 227.556C170.017 227.852 169.857 228 169.635 228ZM176.887 206.244L172.632 219.971H181.327L177.035 206.244H176.887ZM195.173 228H194.1C193.828 228 193.693 227.852 193.693 227.556V206.207C193.693 205.985 193.569 205.874 193.323 205.874H187.958C187.662 205.874 187.514 205.738 187.514 205.467V204.616C187.514 204.345 187.662 204.209 187.958 204.209H201.278C201.574 204.209 201.722 204.345 201.722 204.616V205.467C201.722 205.738 201.574 205.874 201.278 205.874H195.913C195.666 205.874 195.543 205.985 195.543 206.207V227.556C195.543 227.852 195.419 228 195.173 228ZM217.333 228H205.9C205.653 228 205.53 227.852 205.53 227.556V204.653C205.53 204.357 205.653 204.209 205.9 204.209H217.333C217.629 204.209 217.777 204.345 217.777 204.616V205.467C217.777 205.738 217.629 205.874 217.333 205.874H207.75C207.503 205.874 207.38 205.985 207.38 206.207V214.717C207.38 214.939 207.503 215.05 207.75 215.05H216.297C216.568 215.05 216.704 215.186 216.704 215.457V216.308C216.704 216.579 216.568 216.715 216.297 216.715H207.75C207.503 216.715 207.38 216.826 207.38 217.048V226.002C207.38 226.224 207.503 226.335 207.75 226.335H217.333C217.629 226.335 217.777 226.471 217.777 226.742V227.593C217.777 227.864 217.629 228 217.333 228ZM223.195 222.746V221.414C223.195 221.143 223.331 221.007 223.602 221.007H224.675C224.947 221.007 225.082 221.143 225.082 221.414V222.635C225.082 225.102 226.279 226.335 228.671 226.335H232.519C234.912 226.335 236.108 225.089 236.108 222.598V221.044C236.108 219.959 235.664 219.108 234.776 218.491C233.888 217.874 232.815 217.43 231.557 217.159C230.299 216.888 229.029 216.604 227.746 216.308C226.488 216.012 225.415 215.469 224.527 214.68C223.639 213.891 223.195 212.83 223.195 211.498V209.463C223.195 207.835 223.664 206.552 224.601 205.615C225.539 204.678 226.809 204.209 228.412 204.209H232.704C234.308 204.209 235.578 204.678 236.515 205.615C237.453 206.552 237.921 207.835 237.921 209.463V210.499C237.921 210.77 237.786 210.906 237.514 210.906H236.441C236.17 210.906 236.034 210.77 236.034 210.499V209.574C236.034 207.107 234.838 205.874 232.445 205.874H228.634C226.266 205.874 225.082 207.132 225.082 209.648V211.498C225.082 213.2 226.599 214.347 229.633 214.939C230.891 215.186 232.149 215.469 233.407 215.79C234.69 216.111 235.775 216.69 236.663 217.529C237.551 218.368 237.995 219.502 237.995 220.933V222.746C237.995 224.374 237.527 225.657 236.589 226.594C235.652 227.531 234.382 228 232.778 228H228.412C226.809 228 225.539 227.531 224.601 226.594C223.664 225.657 223.195 224.374 223.195 222.746Z" fill="white"/>
<defs>
<linearGradient id="paint0_linear" x1="77.0968" y1="110.542" x2="116.5" y2="109" gradientUnits="userSpaceOnUse">
<stop offset="0.0001" stop-color="#0247F9"/>
<stop offset="0.145833" stop-color="#023D95"/>
<stop offset="1" stop-color="#0046FC" stop-opacity="0"/>
</linearGradient>
<linearGradient id="paint1_linear" x1="139" y1="94" x2="181" y2="95" gradientUnits="userSpaceOnUse">
<stop stop-color="#023D95"/>
<stop offset="1" stop-color="#315DD0" stop-opacity="0"/>
</linearGradient>
<linearGradient id="paint2_linear" x1="185" y1="104.5" x2="240" y2="104.5" gradientUnits="userSpaceOnUse">
<stop offset="0.09375" stop-color="#023D95"/>
<stop offset="1" stop-color="#315DD0" stop-opacity="0.37"/>
</linearGradient>
</defs>
</svg>
