<svg width="271" height="247" viewBox="0 0 271 247" fill="none" xmlns="http://www.w3.org/2000/svg">
<path d="M0 195H271" stroke="white" stroke-width="5"/>
<path d="M79.5 40L41 82V187.5V191V194.5H79.5V40Z" fill="#FFFEFE"/>
<path d="M41 191V187.5M41 187.5V82L79.5 40V194.5H41V187.5Z" stroke="white" stroke-width="2"/>
<path d="M95 54.4065L80 40V194H95V54.4065Z" fill="url(#paint0_linear)" stroke="white" stroke-width="2"/>
<path d="M96.5 3.5V194.5H159.5V55L96.5 3.5Z" fill="#FDFDFD" stroke="white" stroke-width="3"/>
<path d="M139 193V38.5L160 55.5V193H139Z" fill="url(#paint1_linear)" stroke="white" stroke-width="2"/>
<path d="M184 52L160 78V193H215V83.5L184 52Z" fill="white" stroke="white" stroke-width="3"/>
<path d="M185 193V53.5L215 83.5V193H185Z" fill="url(#paint2_linear)" stroke="white"/>
<path d="M20.365 232.335H27.469C28.6037 232.335 29.467 232.027 30.059 231.41C30.6757 230.769 30.984 229.856 30.984 228.672V215.537C30.984 214.353 30.6757 213.453 30.059 212.836C29.467 212.195 28.6037 211.874 27.469 211.874H20.365C20.1183 211.874 19.995 211.985 19.995 212.207V232.002C19.995 232.224 20.1183 232.335 20.365 232.335ZM18.145 233.556V210.653C18.145 210.357 18.2683 210.209 18.515 210.209H27.654C29.2573 210.209 30.5153 210.678 31.428 211.615C32.3653 212.552 32.834 213.835 32.834 215.463V228.746C32.834 230.374 32.3653 231.657 31.428 232.594C30.5153 233.531 29.2573 234 27.654 234H18.515C18.2683 234 18.145 233.852 18.145 233.556ZM38.1117 234H36.9647C36.6934 234 36.607 233.852 36.7057 233.556L44.0687 210.653C44.1427 210.357 44.3154 210.209 44.5867 210.209H46.3257C46.5724 210.209 46.745 210.357 46.8437 210.653L54.2067 233.556C54.2807 233.852 54.1944 234 53.9477 234H52.7637C52.517 234 52.3567 233.852 52.2827 233.556L50.2847 227.636H40.5907L38.5927 233.556C38.494 233.852 38.3337 234 38.1117 234ZM45.3637 212.244L41.1087 225.971H49.8037L45.5117 212.244H45.3637ZM65.4252 234H63.7232C63.4766 234 63.3162 233.852 63.2422 233.556L56.3602 210.653C56.2616 210.357 56.3726 210.209 56.6932 210.209H57.8402C58.0869 210.209 58.2472 210.357 58.3212 210.653L64.5002 231.706H64.6482L70.8272 210.653C70.9012 210.357 71.0616 210.209 71.3082 210.209H72.4552C72.7512 210.209 72.8622 210.357 72.7882 210.653L65.9062 233.556C65.8322 233.852 65.6719 234 65.4252 234ZM79.0042 210.653V233.556C79.0042 233.852 78.8686 234 78.5972 234H77.5242C77.2776 234 77.1542 233.852 77.1542 233.556V210.653C77.1542 210.357 77.2776 210.209 77.5242 210.209H78.5972C78.8686 210.209 79.0042 210.357 79.0042 210.653ZM85.3486 228.746V227.414C85.3486 227.143 85.4842 227.007 85.7556 227.007H86.8286C87.0999 227.007 87.2356 227.143 87.2356 227.414V228.635C87.2356 231.102 88.4319 232.335 90.8246 232.335H94.6726C97.0652 232.335 98.2616 231.089 98.2616 228.598V227.044C98.2616 225.959 97.8176 225.108 96.9296 224.491C96.0416 223.874 94.9686 223.43 93.7106 223.159C92.4526 222.888 91.1822 222.604 89.8996 222.308C88.6416 222.012 87.5686 221.469 86.6806 220.68C85.7926 219.891 85.3486 218.83 85.3486 217.498V215.463C85.3486 213.835 85.8172 212.552 86.7546 211.615C87.6919 210.678 88.9622 210.209 90.5656 210.209H94.8576C96.4609 210.209 97.7312 210.678 98.6686 211.615C99.6059 212.552 100.075 213.835 100.075 215.463V216.499C100.075 216.77 99.9389 216.906 99.6676 216.906H98.5946C98.3232 216.906 98.1876 216.77 98.1876 216.499V215.574C98.1876 213.107 96.9912 211.874 94.5986 211.874H90.7876C88.4196 211.874 87.2356 213.132 87.2356 215.648V217.498C87.2356 219.2 88.7526 220.347 91.7866 220.939C93.0446 221.186 94.3026 221.469 95.5606 221.79C96.8432 222.111 97.9286 222.69 98.8166 223.529C99.7046 224.368 100.149 225.502 100.149 226.933V228.746C100.149 230.374 99.6799 231.657 98.7426 232.594C97.8052 233.531 96.5349 234 94.9316 234H90.5656C88.9622 234 87.6919 233.531 86.7546 232.594C85.8172 231.657 85.3486 230.374 85.3486 228.746ZM127.94 234H116.507C116.261 234 116.137 233.852 116.137 233.556V210.653C116.137 210.357 116.261 210.209 116.507 210.209H127.94C128.236 210.209 128.384 210.345 128.384 210.616V211.467C128.384 211.738 128.236 211.874 127.94 211.874H118.357C118.111 211.874 117.987 211.985 117.987 212.207V220.717C117.987 220.939 118.111 221.05 118.357 221.05H126.904C127.176 221.05 127.311 221.186 127.311 221.457V222.308C127.311 222.579 127.176 222.715 126.904 222.715H118.357C118.111 222.715 117.987 222.826 117.987 223.048V232.002C117.987 232.224 118.111 232.335 118.357 232.335H127.94C128.236 232.335 128.384 232.471 128.384 232.742V233.593C128.384 233.864 128.236 234 127.94 234ZM133.803 228.746V227.414C133.803 227.143 133.938 227.007 134.21 227.007H135.283C135.554 227.007 135.69 227.143 135.69 227.414V228.635C135.69 231.102 136.886 232.335 139.279 232.335H143.127C145.519 232.335 146.716 231.089 146.716 228.598V227.044C146.716 225.959 146.272 225.108 145.384 224.491C144.496 223.874 143.423 223.43 142.165 223.159C140.907 222.888 139.636 222.604 138.354 222.308C137.096 222.012 136.023 221.469 135.135 220.68C134.247 219.891 133.803 218.83 133.803 217.498V215.463C133.803 213.835 134.271 212.552 135.209 211.615C136.146 210.678 137.416 210.209 139.02 210.209H143.312C144.915 210.209 146.185 210.678 147.123 211.615C148.06 212.552 148.529 213.835 148.529 215.463V216.499C148.529 216.77 148.393 216.906 148.122 216.906H147.049C146.777 216.906 146.642 216.77 146.642 216.499V215.574C146.642 213.107 145.445 211.874 143.053 211.874H139.242C136.874 211.874 135.69 213.132 135.69 215.648V217.498C135.69 219.2 137.207 220.347 140.241 220.939C141.499 221.186 142.757 221.469 144.015 221.79C145.297 222.111 146.383 222.69 147.271 223.529C148.159 224.368 148.603 225.502 148.603 226.933V228.746C148.603 230.374 148.134 231.657 147.197 232.594C146.259 233.531 144.989 234 143.386 234H139.02C137.416 234 136.146 233.531 135.209 232.594C134.271 231.657 133.803 230.374 133.803 228.746ZM159.907 234H158.834C158.563 234 158.427 233.852 158.427 233.556V212.207C158.427 211.985 158.304 211.874 158.057 211.874H152.692C152.396 211.874 152.248 211.738 152.248 211.467V210.616C152.248 210.345 152.396 210.209 152.692 210.209H166.012C166.308 210.209 166.456 210.345 166.456 210.616V211.467C166.456 211.738 166.308 211.874 166.012 211.874H160.647C160.4 211.874 160.277 211.985 160.277 212.207V233.556C160.277 233.852 160.154 234 159.907 234ZM169.635 234H168.488C168.217 234 168.13 233.852 168.229 233.556L175.592 210.653C175.666 210.357 175.839 210.209 176.11 210.209H177.849C178.096 210.209 178.268 210.357 178.367 210.653L185.73 233.556C185.804 233.852 185.718 234 185.471 234H184.287C184.04 234 183.88 233.852 183.806 233.556L181.808 227.636H172.114L170.116 233.556C170.017 233.852 169.857 234 169.635 234ZM176.887 212.244L172.632 225.971H181.327L177.035 212.244H176.887ZM195.173 234H194.1C193.828 234 193.693 233.852 193.693 233.556V212.207C193.693 211.985 193.569 211.874 193.323 211.874H187.958C187.662 211.874 187.514 211.738 187.514 211.467V210.616C187.514 210.345 187.662 210.209 187.958 210.209H201.278C201.574 210.209 201.722 210.345 201.722 210.616V211.467C201.722 211.738 201.574 211.874 201.278 211.874H195.913C195.666 211.874 195.543 211.985 195.543 212.207V233.556C195.543 233.852 195.419 234 195.173 234ZM217.333 234H205.9C205.653 234 205.53 233.852 205.53 233.556V210.653C205.53 210.357 205.653 210.209 205.9 210.209H217.333C217.629 210.209 217.777 210.345 217.777 210.616V211.467C217.777 211.738 217.629 211.874 217.333 211.874H207.75C207.503 211.874 207.38 211.985 207.38 212.207V220.717C207.38 220.939 207.503 221.05 207.75 221.05H216.297C216.568 221.05 216.704 221.186 216.704 221.457V222.308C216.704 222.579 216.568 222.715 216.297 222.715H207.75C207.503 222.715 207.38 222.826 207.38 223.048V232.002C207.38 232.224 207.503 232.335 207.75 232.335H217.333C217.629 232.335 217.777 232.471 217.777 232.742V233.593C217.777 233.864 217.629 234 217.333 234ZM223.195 228.746V227.414C223.195 227.143 223.331 227.007 223.602 227.007H224.675C224.947 227.007 225.082 227.143 225.082 227.414V228.635C225.082 231.102 226.279 232.335 228.671 232.335H232.519C234.912 232.335 236.108 231.089 236.108 228.598V227.044C236.108 225.959 235.664 225.108 234.776 224.491C233.888 223.874 232.815 223.43 231.557 223.159C230.299 222.888 229.029 222.604 227.746 222.308C226.488 222.012 225.415 221.469 224.527 220.68C223.639 219.891 223.195 218.83 223.195 217.498V215.463C223.195 213.835 223.664 212.552 224.601 211.615C225.539 210.678 226.809 210.209 228.412 210.209H232.704C234.308 210.209 235.578 210.678 236.515 211.615C237.453 212.552 237.921 213.835 237.921 215.463V216.499C237.921 216.77 237.786 216.906 237.514 216.906H236.441C236.17 216.906 236.034 216.77 236.034 216.499V215.574C236.034 213.107 234.838 211.874 232.445 211.874H228.634C226.266 211.874 225.082 213.132 225.082 215.648V217.498C225.082 219.2 226.599 220.347 229.633 220.939C230.891 221.186 232.149 221.469 233.407 221.79C234.69 222.111 235.775 222.69 236.663 223.529C237.551 224.368 237.995 225.502 237.995 226.933V228.746C237.995 230.374 237.527 231.657 236.589 232.594C235.652 233.531 234.382 234 232.778 234H228.412C226.809 234 225.539 233.531 224.601 232.594C223.664 231.657 223.195 230.374 223.195 228.746Z" fill="white"/>
<defs>
<linearGradient id="paint0_linear" x1="77.0968" y1="110.542" x2="116.5" y2="109" gradientUnits="userSpaceOnUse">
<stop offset="0.0001" stop-color="#0247F9"/>
<stop offset="0.145833" stop-color="#023D95"/>
<stop offset="1" stop-color="#0046FC" stop-opacity="0"/>
</linearGradient>
<linearGradient id="paint1_linear" x1="139" y1="94" x2="181" y2="95" gradientUnits="userSpaceOnUse">
<stop stop-color="#023D95"/>
<stop offset="1" stop-color="#315DD0" stop-opacity="0"/>
</linearGradient>
<linearGradient id="paint2_linear" x1="185" y1="104.5" x2="240" y2="104.5" gradientUnits="userSpaceOnUse">
<stop offset="0.09375" stop-color="#023D95"/>
<stop offset="1" stop-color="#315DD0" stop-opacity="0.37"/>
</linearGradient>
</defs>
</svg>
